<svg xmlns="http://www.w3.org/2000/svg" width="52" height="45" viewBox="0 0 52 45"><g><g><g><path fill="#64a4d7" d="M35.429 11.19C44.58 11.19 52 18.783 52 28.15s-7.42 16.96-16.571 16.96c-9.153 0-16.572-7.593-16.572-16.96s7.42-16.96 16.572-16.96z"/></g><g><path fill="#4c92ca" d="M35.429 14.37c7.436 0 13.464 6.17 13.464 13.78 0 7.61-6.028 13.78-13.464 13.78-7.437 0-13.465-6.17-13.465-13.78 0-7.61 6.028-13.78 13.465-13.78z"/></g><g><path fill="#fff" d="M35.429 17.55c.572 0 1.035.475 1.035 1.06v7.704A2.128 2.128 0 0 1 37.5 28.15c0 1.17-.927 2.12-2.071 2.12-1.144 0-2.072-.95-2.072-2.12 0-.785.417-1.47 1.036-1.836V18.61c0-.585.464-1.06 1.036-1.06z"/></g><g><path fill="#89bae1" d="M35.429.06c3.432 0 6.214 2.847 6.214 6.36 0 3.513-2.782 6.36-6.214 6.36-3.433 0-6.215-2.847-6.215-6.36 0-3.513 2.782-6.36 6.215-6.36zm-4.661 6.36c0 2.634 2.087 4.77 4.66 4.77 2.575 0 4.661-2.136 4.661-4.77 0-2.634-2.086-4.77-4.66-4.77-2.574 0-4.661 2.136-4.661 4.77z"/></g><g><path fill="#89bae1" d="M33.875 6.95h3.107v4.24h-3.107z"/></g><g><path fill="#89bae1" d="M33.357 4.83H37.5c.572 0 1.036.475 1.036 1.06v1.06c0 .586-.464 1.06-1.036 1.06h-4.143a1.048 1.048 0 0 1-1.036-1.06V5.89c0-.585.464-1.06 1.036-1.06z"/></g><g><path fill="#64a4d7" d="M6.429 15.96h10.357c.572 0 1.035.474 1.035 1.06 0 .585-.463 1.06-1.035 1.06H6.429a1.048 1.048 0 0 1-1.036-1.06c0-.586.464-1.06 1.036-1.06zm-5.179 5.3h10.357c.572 0 1.036.475 1.036 1.06 0 .585-.464 1.06-1.036 1.06H1.25a1.048 1.048 0 0 1-1.036-1.06c0-.585.464-1.06 1.036-1.06zm0 10.6h10.357c.572 0 1.036.475 1.036 1.06 0 .585-.464 1.06-1.036 1.06H1.25a1.048 1.048 0 0 1-1.036-1.06c0-.585.464-1.06 1.036-1.06zm5.696 5.3h10.358c.572 0 1.035.475 1.035 1.06 0 .585-.463 1.06-1.035 1.06H6.946a1.048 1.048 0 0 1-1.035-1.06c0-.585.463-1.06 1.035-1.06zm-4.142-10.6h11.392c.572 0 1.036.474 1.036 1.06 0 .585-.464 1.06-1.036 1.06H2.804a1.048 1.048 0 0 1-1.036-1.06c0-.586.464-1.06 1.036-1.06z"/></g></g></g></svg>